<svg id="圖層_1" data-name="圖層 1" xmlns="http://www.w3.org/2000/svg" viewBox="0 0 89.18 75"><defs><style>.cls-1{fill:none;stroke:#fff;stroke-linecap:round;stroke-linejoin:round;stroke-width:2px;}.cls-2{fill:#fff;}</style></defs><path class="cls-1" d="M22.37,53.29V46c-.21-1.68.59-5.06,5.49-5.2,2.18-.06,7.38-.08,13.3-.07M22.37,53.29c.93-1.56,3.33-4.31,5.49-2.86a5.44,5.44,0,0,0,5.66,0c1.23.58,3.94,1.56,4.94.87.6-1.07,2.63-2.56,5.94,0,1.2-1.27,4.08-3,6,0,1.35-.66,4.61-1.59,6.84,0h2.06c.67-1,3-2.1,6.94,2m-43.89,0v10m43.89-10c0-2.56,0-4.86.08-6.49.14-5.34-2.76-6.21-4.23-6-3.68,0-9,0-14.38-.06M66.26,53.29c0,3.17,0,6.75,0,10m-43.91,0V70h44c0-1.72,0-4.12-.06-6.75m-43.91,0C24,61,28.09,57.53,31.18,61.69c.9-1.62,3.36-3.88,6,0,1.19-1.53,4.31-3.67,7.19,0,1-1.56,3.58-3.74,6,0,1.14-1.53,4.1-3.67,6.84,0,1.28-2,4.88-4.47,9,1.56M41.16,40.75c-1.62-2.32-3.67-7.17,1.08-8.07a15,15,0,0,1,2.16-.08m-3.24,8.15h6.57m0,0,.8-2.71c2.13-4.15-1.11-5.33-4.13-5.45m0,0c-.51-1.62-.56-4.8,3.33-4.59"/><path class="cls-2" d="M7,19.24l-.79.85-.78.85-.73.85c-.24.27-.44.53-.61.76A2.83,2.83,0,0,0,3.72,22a2.85,2.85,0,0,0-.53-.38L5.1,19.84,7,18l1.81-1.93,1.8-1.92a2.85,2.85,0,0,0,.33.52,2.32,2.32,0,0,0,.59.34l-.75.61-.83.75-.85.8-.78.78c1,1,2,2,3,3l2.46,2.55c.64.63,1.28,1.25,1.92,1.83l1.9,1.7c-.23.21-.48.43-.73.68l-.68.73-1.81-1.88c-.55-.64-1.11-1.27-1.7-1.91L10,22.16C9,21.18,8,20.2,7,19.24Z"/><path class="cls-2" d="M13,13.48a1,1,0,1,1,1.45.22,1.06,1.06,0,0,1-.77.19A1,1,0,0,1,13,13.48Zm4.67,5.74-1.17-1.53c-.42-.53-.82-1-1.22-1.44a5.27,5.27,0,0,0,.7-.46,5,5,0,0,0,.67-.63c.3.51.64,1.05,1,1.6s.76,1.08,1.13,1.56L20.08,20c.37.49.76,1,1.18,1.53s.81,1,1.19,1.4l-.77.51c-.24.18-.48.37-.71.57-.27-.47-.6-1-1-1.54l-1.12-1.57Z"/><path class="cls-2" d="M37.47,8.2a1.91,1.91,0,0,0-1.7-.41A2.4,2.4,0,0,0,33.92,9.1a3.94,3.94,0,0,0-.19,2.49l.37,1.7.44,1.87a13.3,13.3,0,0,0,.53,1.7l-.9.16-.88.23a6.54,6.54,0,0,0-.28-1.8,14.34,14.34,0,0,1-.39-1.88l-.44-2c-.13-.6-.28-1.22-.44-1.86a18.78,18.78,0,0,0-.54-1.82,5.63,5.63,0,0,0,.91-.1l.34-.11.43-.17c.08.55.17,1.08.29,1.6h0a4.26,4.26,0,0,1,1-1.7,3.61,3.61,0,0,1,1.7-.88,4.1,4.1,0,0,1,1.26,0,2.67,2.67,0,0,1,1.14.32,2.86,2.86,0,0,1,1,.88A4.45,4.45,0,0,1,40,9.4c.12.57.24,1.14.35,1.7s.25,1.21.4,1.94L41,14.33l.16.63.15.58-.85.15-.82.22-.39-2.16c-.12-.73-.27-1.49-.44-2.26l-.27-1.2A3.77,3.77,0,0,0,37.47,8.2Z"/><path class="cls-2" d="M50.21,13,52.34,11,54.27,9l1.57-1.56-.75-.1-1.51-.16L51.88,7l-1.46-.1a2.68,2.68,0,0,0,.13-.56,3,3,0,0,0,0-.6c.43.11,1.06.22,1.89.36l3.14.48.77.11h1.88V7L56,9.27l-2.23,2.19-2,1.95-1.36,1.36L52,15l1.41.17,1.53.14,1.85.12a1.52,1.52,0,0,0-.17.56,1.1,1.1,0,0,0,0,.51l-2.52-.41-2.41-.37-1.78-.26-1.79-.22V15C48.79,14.39,49.49,13.72,50.21,13Z"/><path class="cls-2" d="M60.64,11.73c.2-.58.39-1.19.58-1.83s.35-1.26.48-1.84a5.73,5.73,0,0,0,.83.39,5.77,5.77,0,0,0,.9.19c-.25.53-.49,1.1-.71,1.7s-.44,1.2-.63,1.82l-.66,2c-.2.58-.39,1.19-.58,1.84s-.35,1.21-.46,1.69l-.85-.32-.88-.25c.23-.5.47-1.07.69-1.7s.44-1.24.65-1.82ZM62.7,4.66a1,1,0,0,1,2,.66h0a1,1,0,1,1-2-.66Z"/><path class="cls-2" d="M70,19.73l2.85-.86,2.62-.82,2.11-.66-.67-.46-1.27-.83-1.48-.94-1.24-.76a2.66,2.66,0,0,0,.39-.43,3.2,3.2,0,0,0,.29-.51c.33.29.83.68,1.51,1.19l2.55,1.87.63.46.56.38.51.32.53.32-.19.26-2.82.85-3,.91-2.65.82-1.84.58,1.26.9,1.17.8,1.29.83,1.7,1a1.94,1.94,0,0,0-.4.41,1.35,1.35,0,0,0-.24.46q-1-.78-2-1.53l-2.07-1.49-1.5-1c-.48-.35-1-.69-1.48-1l.14-.19Z"/><path class="cls-2" d="M79.88,23.49l1.36-1.36q.69-.73,1.26-1.41a4.88,4.88,0,0,0,.56.73,4.94,4.94,0,0,0,.71.59q-.69.55-1.44,1.23l-1.41,1.32-1.53,1.48L78,27.43c-.47.49-.87.94-1.23,1.36-.2-.24-.4-.47-.61-.68s-.42-.42-.66-.63q.66-.5,1.41-1.17L78.35,25ZM85,18.15a1,1,0,1,1,0,1.47,1.06,1.06,0,0,1-.29-.74A1,1,0,0,1,85,18.1Z"/><path class="cls-2" d="M21.1,13.29a6.17,6.17,0,0,1,1.07-1.7,5.5,5.5,0,0,1,1.35-.93,4.06,4.06,0,0,1,1.32-.41,3,3,0,0,1,1.22.1,2.88,2.88,0,0,1,1,.58,3.23,3.23,0,0,1,.77,1c.34.72.66,1.42,1,2.13s.66,1.45,1,2.24l.24.47a1.36,1.36,0,0,0,.3.41,1,1,0,0,0,.38.22.64.64,0,0,0,.47,0l.19-.1a.61.61,0,0,0,.17-.15l.2.41a3.31,3.31,0,0,1-.44.39,3.86,3.86,0,0,1-.65.39A1.3,1.3,0,0,1,29,17.92l0,0a5.65,5.65,0,0,1-.85,1.7,4.08,4.08,0,0,1-1.45,1.09,3.22,3.22,0,0,1-1,.3,2.11,2.11,0,0,1-1,0,2.44,2.44,0,0,1-.9-.44,2.27,2.27,0,0,1-.68-.85A2.42,2.42,0,0,1,23,17.61a4.23,4.23,0,0,1,1.52-1.7l1.43-1.05a5.06,5.06,0,0,0,.72-.67.66.66,0,0,0,.17-.45,2,2,0,0,0-.17-.48,3.86,3.86,0,0,0-.55-.83,2.35,2.35,0,0,0-.69-.84,2.08,2.08,0,0,0-.89-.17,2.38,2.38,0,0,0-1,.28,3.29,3.29,0,0,0-1.22,1,2.44,2.44,0,0,0-.51,1.39l-.2.1Zm6.21,1.09a5.72,5.72,0,0,1-.65.55l-.77.57a9.09,9.09,0,0,0-.74.63,3.49,3.49,0,0,0-.65.56,2,2,0,0,0-.25.82,1.75,1.75,0,0,0,.22.95,1.81,1.81,0,0,0,2.48,1,2.52,2.52,0,0,0,1.1-1,3.28,3.28,0,0,0,.46-1.36ZM23.06,5.89A1.36,1.36,0,0,1,23.69,5a.76.76,0,0,1,.47,0,.57.57,0,0,1,.43.34.79.79,0,0,1,0,.64,4.18,4.18,0,0,1-.28.56L22.39,9.49l-.78.41Z"/></svg>